<svg xmlns="http://www.w3.org/2000/svg">
  <symbol id="iichan-icon-close" viewBox="0 0 16 16">
    <path
      fill="currentcolor"
      d="m 11.734373,2.0393046 c -0.551714,0.0032 -1.101132,0.214707 -1.521485,0.636719 l -2.2656251,2.275391 -2.359375,-2.314453 c -0.798816,-0.783843 -2.079336,-0.777297 -2.86914,0.01563 l -0.171875,0.171875 c -0.789805,0.792922 -0.781239,2.063814 0.01758,2.847656 l 2.359375,2.314453 -2.304688,2.3125004 c -0.840706,0.844025 -0.83272,2.194937 0.01758,3.029297 l 0.01172,0.01172 c 0.850299,0.834359 2.212029,0.826446 3.052734,-0.01758 l 2.302735,-2.3125 2.4101561,2.363281 c 0.798817,0.783842 2.077383,0.777297 2.867188,-0.01563 l 0.171875,-0.173828 c 0.789804,-0.792922 0.781238,-2.061861 -0.01758,-2.845703 l -2.408204,-2.3632824 2.265625,-2.27539 c 0.840706,-0.844025 0.832721,-2.194938 -0.01758,-3.029297 l -0.0098,-0.01172 c -0.42515,-0.41718 -0.979537,-0.622294 -1.53125,-0.619141 z"/>
  </symbol>
  <symbol id="iichan-icon-reply" viewBox="0 0 16 16">
    <path
      fill="currentcolor"
      d="M 8,0.98745 A 7.0133929,5.9117254 0 0 0 0.986328,6.89859 7.0133929,5.9117254 0 0 0 3.037109,11.07043 L 1.835937,15.01255 6.230469,12.61078 A 7.0133929,5.9117254 0 0 0 8,12.80973 7.0133929,5.9117254 0 0 0 15.013672,6.89859 7.0133929,5.9117254 0 0 0 8,0.98745 Z"/>
  </symbol>
  <symbol id="iichan-icon-hide" viewBox="0 0 16 16">
    <path
      fill="currentcolor"
      d="m 2.8925753,6.0097655 c -1.039639,0 -1.876953,0.837315 -1.876953,1.876954 v 0.226562 c 0,1.039639 0.837314,1.876953 1.876953,1.876953 10.8787687,0 0.063512,0 10.2148497,0 1.039637,0 1.876953,-0.837314 1.876953,-1.876953 v -0.226562 c 0,-1.039639 -0.837315,-1.876954 -1.876953,-1.876954 -10.8494379,0 -0.248141,0 -10.2148497,0 z"/>
  </symbol>
  <symbol id="iichan-icon-unhide" viewBox="0 0 16 16">
    <path
      fill="currentcolor"
      d="m 7.9589815,1.003906 c -1.106736,0 -1.996094,0.89131 -1.996094,1.998047 v 2.982421 h -3.070312 c -1.039639,0 -1.876953,0.837315 -1.876953,1.876954 V 8.08789 c 0,1.039639 0.837314,1.876953 1.876953,1.876953 h 3.070312 v 3.033204 c 0,1.106736 0.889358,1.998047 1.996094,1.998047 h 0.01563 c 1.106736,0 1.996094,-0.891311 1.996094,-1.998047 V 9.964843 h 3.1367195 c 1.039637,0 1.876953,-0.837314 1.876953,-1.876953 V 7.861328 c 0,-1.039639 -0.837315,-1.876954 -1.876953,-1.876954 H 9.9707005 V 3.001953 c 0,-1.106737 -0.889358,-1.998047 -1.996094,-1.998047 z"/>
  </symbol>
</svg>