<svg xmlns="http://www.w3.org/2000/svg">
  <symbol id="<%= ICON_HIDE_ID %>" width="16" height="16" viewBox="0 0 16 16">
    <path
      fill="currentcolor"
      d="m 2.8925753,6.0097655 c -1.039639,0 -1.876953,0.837315 -1.876953,1.876954 v 0.226562 c 0,1.039639 0.837314,1.876953 1.876953,1.876953 10.8787687,0 0.063512,0 10.2148497,0 1.039637,0 1.876953,-0.837314 1.876953,-1.876953 v -0.226562 c 0,-1.039639 -0.837315,-1.876954 -1.876953,-1.876954 -10.8494379,0 -0.248141,0 -10.2148497,0 z"/>
  </symbol>
  <symbol id="<%= ICON_UNHIDE_ID %>" width="16" height="16" viewBox="0 0 16 16">
    <path
      fill="currentcolor"
      d="m 7.9589815,1.003906 c -1.106736,0 -1.996094,0.89131 -1.996094,1.998047 v 2.982421 h -3.070312 c -1.039639,0 -1.876953,0.837315 -1.876953,1.876954 V 8.08789 c 0,1.039639 0.837314,1.876953 1.876953,1.876953 h 3.070312 v 3.033204 c 0,1.106736 0.889358,1.998047 1.996094,1.998047 h 0.01563 c 1.106736,0 1.996094,-0.891311 1.996094,-1.998047 V 9.964843 h 3.1367195 c 1.039637,0 1.876953,-0.837314 1.876953,-1.876953 V 7.861328 c 0,-1.039639 -0.837315,-1.876954 -1.876953,-1.876954 H 9.9707005 V 3.001953 c 0,-1.106737 -0.889358,-1.998047 -1.996094,-1.998047 z"/>
  </symbol>
</svg>